<svg width="96" height="96" viewBox="0 0 96 96" fill="none" xmlns="http://www.w3.org/2000/svg">
  <defs>
    <linearGradient id="g" x1="10" y1="12" x2="86" y2="84" gradientUnits="userSpaceOnUse">
      <stop stop-color="#7D41FF" stop-opacity="0.95"/>
      <stop offset="1" stop-color="#4CC9F0" stop-opacity="0.65"/>
    </linearGradient>
  </defs>
  <path d="M48 8L84 26V54C84 72 68 84 48 90C28 84 12 72 12 54V26L48 8Z" fill="rgba(0,0,0,0.25)" stroke="url(#g)" stroke-width="2"/>
  <path d="M38 26H54C62 26 68 32 68 40C68 48 62 52 54 52H38V26Z" stroke="url(#g)" stroke-width="4" stroke-linecap="round" stroke-linejoin="round"/>
  <path d="M38 52H56C64 52 70 58 70 66C70 74 64 80 56 80H38V52Z" stroke="url(#g)" stroke-width="4" stroke-linecap="round" stroke-linejoin="round"/>
</svg>
